<?xml version="1.0" encoding="UTF-8" standalone="no"?>
<!-- Generator: Adobe Illustrator 19.0.0, SVG Export Plug-In . SVG Version: 6.00 Build 0)  -->

<svg
   xmlns:dc="http://purl.org/dc/elements/1.1/"
   xmlns:cc="http://creativecommons.org/ns#"
   xmlns:rdf="http://www.w3.org/1999/02/22-rdf-syntax-ns#"
   xmlns:svg="http://www.w3.org/2000/svg"
   xmlns="http://www.w3.org/2000/svg"
   xmlns:sodipodi="http://sodipodi.sourceforge.net/DTD/sodipodi-0.dtd"
   xmlns:inkscape="http://www.inkscape.org/namespaces/inkscape"
   version="1.1"
   id="Capa_1"
   x="0px"
   y="0px"
   viewBox="0 0 450.00088 450.00088"
   xml:space="preserve"
   width="450"
   height="450"
   sodipodi:docname="pi.svg"
   inkscape:version="0.92.3 (2405546, 2018-03-11)"><metadata
   id="metadata3953"><rdf:RDF><cc:Work
       rdf:about=""><dc:format>image/svg+xml</dc:format><dc:type
         rdf:resource="http://purl.org/dc/dcmitype/StillImage" /><dc:title /></cc:Work></rdf:RDF></metadata><defs
   id="defs3951" /><sodipodi:namedview
   pagecolor="#ffffff"
   bordercolor="#666666"
   borderopacity="1"
   objecttolerance="10"
   gridtolerance="10"
   guidetolerance="10"
   inkscape:pageopacity="0"
   inkscape:pageshadow="2"
   inkscape:window-width="1533"
   inkscape:window-height="845"
   id="namedview3949"
   showgrid="false"
   inkscape:zoom="0.4609375"
   inkscape:cx="-97.627119"
   inkscape:cy="256"
   inkscape:window-x="67"
   inkscape:window-y="27"
   inkscape:window-maximized="1"
   inkscape:current-layer="Capa_1" />
<g
   id="g3916"
   transform="matrix(0.830394,0,0,0.82203475,11.893826,15.084695)">
	<g
   id="g3914">
		<g
   id="g3912">
			<path
   d="m 492.245,377.007 c -11.009,-0.211 -20.184,8.531 -20.417,19.575 -0.004,0.193 -0.671,19.863 -10.122,39.103 -12.005,24.438 -32.029,36.318 -61.215,36.318 -14.747,0 -25.734,-4.3 -33.591,-13.146 -17.351,-19.537 -17.111,-57.787 -15.561,-70.831 0.028,-0.229 0.053,-0.458 0.073,-0.687 0.102,-1.155 10.335,-116.617 17.536,-214.871 0.808,-11.016 -7.468,-20.601 -18.484,-21.408 -11.016,-0.813 -20.601,7.468 -21.408,18.484 -7.015,95.705 -16.92,207.856 -17.464,214.002 -0.306,2.724 -1.77,17.432 -0.048,35.585 2.644,27.873 11.164,50.128 25.323,66.145 15.455,17.485 37.456,26.727 63.623,26.727 24.553,0 45.887,-6.207 63.411,-18.448 14.084,-9.838 25.424,-23.375 33.706,-40.234 13.463,-27.407 14.187,-54.746 14.211,-55.896 0.234,-11.044 -8.53,-20.185 -19.573,-20.418 z"
   id="path3908"
   inkscape:connector-curvature="0"
   style="fill:#ffffff;stroke:none" />
			<path
   d="m 469.756,77.424 c 18.535,-12.323 32.598,-29.638 40.669,-50.073 4.058,-10.273 -0.982,-21.89 -11.255,-25.948 -10.272,-4.057 -21.89,0.981 -25.948,11.255 -10.24,25.927 -36.38,43.347 -65.046,43.347 h -261.35 c -45.647,0 -85.448,20.129 -115.103,58.211 -21.693,27.858 -30.325,55.804 -30.682,56.98 -3.207,10.57 2.752,21.768 13.322,24.976 1.942,0.589 3.902,0.87 5.831,0.87 8.569,-0.001 16.488,-5.543 19.106,-14.171 0.07,-0.227 7.252,-22.973 24.728,-45.025 22.001,-27.764 49.859,-41.841 82.799,-41.841 h 36.378 c -0.466,7.43 -0.94,15.349 -1.432,23.59 -3.966,66.409 -9.398,157.362 -24.761,232.27 -15.889,77.471 -39.393,120.137 -66.184,120.137 -11.046,0 -20,8.954 -20,20 0,11.046 8.954,20 20,20 28.422,0 52.323,-16.671 71.039,-49.55 13.988,-24.572 25.217,-58.115 34.33,-102.551 15.937,-77.706 21.467,-170.307 25.506,-237.922 0.546,-9.141 1.069,-17.898 1.582,-25.974 v -0.002 h 184.892 c 22.004,0.001 43.297,-6.424 61.579,-18.579 z"
   id="path3910"
   inkscape:connector-curvature="0"
   style="fill:#ffffff;stroke:none" />
		</g>
	</g>
</g>
<g
   id="g3918"
   transform="translate(0,-62.000121)">
</g>
<g
   id="g3920"
   transform="translate(0,-62.000121)">
</g>
<g
   id="g3922"
   transform="translate(0,-62.000121)">
</g>
<g
   id="g3924"
   transform="translate(0,-62.000121)">
</g>
<g
   id="g3926"
   transform="translate(0,-62.000121)">
</g>
<g
   id="g3928"
   transform="translate(0,-62.000121)">
</g>
<g
   id="g3930"
   transform="translate(0,-62.000121)">
</g>
<g
   id="g3932"
   transform="translate(0,-62.000121)">
</g>
<g
   id="g3934"
   transform="translate(0,-62.000121)">
</g>
<g
   id="g3936"
   transform="translate(0,-62.000121)">
</g>
<g
   id="g3938"
   transform="translate(0,-62.000121)">
</g>
<g
   id="g3940"
   transform="translate(0,-62.000121)">
</g>
<g
   id="g3942"
   transform="translate(0,-62.000121)">
</g>
<g
   id="g3944"
   transform="translate(0,-62.000121)">
</g>
<g
   id="g3946"
   transform="translate(0,-62.000121)">
</g>
</svg>